# xmcd
#
# Track frame offsets:
#	150
#	16571
#	31381
#	51578
#	68708
#	78984
#	93863
#	104901
#	121556
#
# Disc length: 1869 seconds
#
# Revision: 0
# Processed by: cddbd v1.5.2PL0 Copyright (c) Steve Scherf et al.
# Submitted via: dBpowerAMP V4.0
#
DISCID=68074b09
DTITLE=William Elliott Whitmore - Song Of The Blackbird
DYEAR=2006
DGENRE=Country
TTITLE0=Dry
TTITLE1=The Chariot
TTITLE2=One Man's Shame
TTITLE3=Rest His Soul
TTITLE4=And Then The Rains Came
TTITLE5=Lee County Flood
TTITLE6=Take It On The Chin
TTITLE7=Red Buds
TTITLE8=Everyday
EXTD=
EXTT0=
EXTT1=
EXTT2=
EXTT3=
EXTT4=
EXTT5=
EXTT6=
EXTT7=
EXTT8=
PLAYORDER=
